<?xml version="1.0" encoding="utf-8"?>
<!-- Generator: Adobe Illustrator 17.1.0, SVG Export Plug-In . SVG Version: 6.00 Build 0)  -->
<!DOCTYPE svg PUBLIC "-//W3C//DTD SVG 1.1//EN" "http://www.w3.org/Graphics/SVG/1.1/DTD/svg11.dtd">
<svg version="1.1" id="Layer_1" xmlns="http://www.w3.org/2000/svg" xmlns:xlink="http://www.w3.org/1999/xlink" x="0px" y="0px"
	 viewBox="0 0 445.2 659" enable-background="new 0 0 445.2 659" xml:space="preserve">
<circle fill="#A66049" cx="431.9" cy="156.5" r="13.3"/>
<circle fill="#A66049" cx="338.3" cy="177.3" r="13.3"/>
<circle fill="#A66049" cx="338.3" cy="86.1" r="13.3"/>
<circle fill="#A66049" cx="275.9" cy="90.8" r="13.3"/>
<circle fill="#A66049" cx="244.1" cy="71.2" r="13.3"/>
<circle fill="#A66049" cx="217.4" cy="162.8" r="13.3"/>
<circle fill="#A66049" cx="153.1" cy="13.3" r="13.3"/>
<circle fill="#A66049" cx="77.4" cy="129.2" r="13.3"/>
<circle fill="#A66049" cx="20.5" cy="195.8" r="13.3"/>
<circle fill="#A66049" cx="164" cy="222.5" r="13.3"/>
<circle fill="#A66049" cx="230.7" cy="288.1" r="13.3"/>
<circle fill="#A66049" cx="257.4" cy="284.3" r="13.3"/>
<circle fill="#A66049" cx="255.9" cy="366.6" r="13.3"/>
<circle fill="#A66049" cx="159.9" cy="369" r="13.3"/>
<circle fill="#A66049" cx="204.1" cy="421" r="13.3"/>
<circle fill="#A66049" cx="227.6" cy="521.4" r="13.3"/>
<circle fill="#A66049" cx="179.4" cy="546.7" r="13.3"/>
<circle fill="#A66049" cx="166.1" cy="645.6" r="13.3"/>
<circle fill="#A66049" cx="87.3" cy="544.6" r="13.3"/>
<circle fill="#A66049" cx="66.2" cy="454.6" r="13.3"/>
<circle fill="#A66049" cx="13.3" cy="401.4" r="13.3"/>
<circle fill="#A66049" cx="348.9" cy="351.1" r="13.3"/>
<g>
	<path fill="#A66049" d="M315.5,307.1c10.1,0,18.3,8.2,18.3,18.3s-8.2,18.3-18.3,18.3s-18.3-8.2-18.3-18.3S305.4,307.1,315.5,307.1
		 M315.5,302.1c-12.9,0-23.3,10.4-23.3,23.3s10.4,23.3,23.3,23.3s23.3-10.4,23.3-23.3S328.4,302.1,315.5,302.1L315.5,302.1z"/>
</g>
<g>
	<path fill="#A66049" d="M269.3,398.3c10.1,0,18.3,8.2,18.3,18.3s-8.2,18.3-18.3,18.3s-18.3-8.2-18.3-18.3S259.2,398.3,269.3,398.3
		 M269.3,393.3c-12.9,0-23.3,10.4-23.3,23.3s10.4,23.3,23.3,23.3s23.3-10.4,23.3-23.3S282.1,393.3,269.3,393.3L269.3,393.3z"/>
</g>
<g>
	<path fill="#A66049" d="M176,433.1c10.1,0,18.3,8.2,18.3,18.3s-8.2,18.3-18.3,18.3s-18.3-8.2-18.3-18.3S166,433.1,176,433.1
		 M176,428.1c-12.9,0-23.3,10.4-23.3,23.3c0,12.9,10.4,23.3,23.3,23.3c12.9,0,23.3-10.4,23.3-23.3
		C199.4,438.5,188.9,428.1,176,428.1L176,428.1z"/>
</g>
<g>
	<path fill="#A66049" d="M136.6,273.2c10.1,0,18.3,8.2,18.3,18.3s-8.2,18.3-18.3,18.3s-18.3-8.2-18.3-18.3S126.5,273.2,136.6,273.2
		 M136.6,268.2c-12.9,0-23.3,10.4-23.3,23.3c0,12.9,10.4,23.3,23.3,23.3c12.9,0,23.3-10.4,23.3-23.3
		C159.9,278.7,149.5,268.2,136.6,268.2L136.6,268.2z"/>
</g>
<g>
	<path fill="#A66049" d="M270.7,201.5c10.1,0,18.3,8.2,18.3,18.3s-8.2,18.3-18.3,18.3s-18.3-8.2-18.3-18.3S260.6,201.5,270.7,201.5
		 M270.7,196.5c-12.9,0-23.3,10.4-23.3,23.3c0,12.9,10.4,23.3,23.3,23.3s23.3-10.4,23.3-23.3C294,206.9,283.6,196.5,270.7,196.5
		L270.7,196.5z"/>
</g>
<g>
	<path fill="#A66049" d="M52.9,351.7c10.1,0,18.3,8.2,18.3,18.3s-8.2,18.3-18.3,18.3s-18.3-8.2-18.3-18.3S42.8,351.7,52.9,351.7
		 M52.9,346.7c-12.9,0-23.3,10.4-23.3,23.3s10.4,23.3,23.3,23.3s23.3-10.4,23.3-23.3S65.8,346.7,52.9,346.7L52.9,346.7z"/>
</g>
<g>
	<path fill="#A66049" d="M58.6,204.2c10.1,0,18.3,8.2,18.3,18.3s-8.2,18.3-18.3,18.3s-18.3-8.2-18.3-18.3S48.5,204.2,58.6,204.2
		 M58.6,199.2c-12.9,0-23.3,10.4-23.3,23.3c0,12.9,10.4,23.3,23.3,23.3s23.3-10.4,23.3-23.3C81.9,209.6,71.5,199.2,58.6,199.2
		L58.6,199.2z"/>
</g>
<g>
	<path fill="#A66049" d="M185.6,117.6c10.1,0,18.3,8.2,18.3,18.3s-8.2,18.3-18.3,18.3c-10.1,0-18.3-8.2-18.3-18.3
		S175.5,117.6,185.6,117.6 M185.6,112.6c-12.9,0-23.3,10.4-23.3,23.3s10.4,23.3,23.3,23.3c12.9,0,23.3-10.4,23.3-23.3
		S198.5,112.6,185.6,112.6L185.6,112.6z"/>
</g>
<g>
	<path fill="#A66049" d="M153.1,41.3c10.1,0,18.3,8.2,18.3,18.3s-8.2,18.3-18.3,18.3s-18.3-8.2-18.3-18.3S143.1,41.3,153.1,41.3
		 M153.1,36.3c-12.9,0-23.3,10.4-23.3,23.3s10.4,23.3,23.3,23.3s23.3-10.4,23.3-23.3S166,36.3,153.1,36.3L153.1,36.3z"/>
</g>
<g>
	<path fill="#A66049" d="M399.7,115.5c10.1,0,18.3,8.2,18.3,18.3c0,10.1-8.2,18.3-18.3,18.3s-18.3-8.2-18.3-18.3
		C381.4,123.7,389.6,115.5,399.7,115.5 M399.7,110.5c-12.9,0-23.3,10.4-23.3,23.3s10.4,23.3,23.3,23.3c12.9,0,23.3-10.4,23.3-23.3
		S412.6,110.5,399.7,110.5L399.7,110.5z"/>
</g>
<g>
	<path fill="#A66049" d="M338.3,118.5c8.4,0,15.3,6.9,15.3,15.3s-6.9,15.3-15.3,15.3s-15.3-6.9-15.3-15.3S329.8,118.5,338.3,118.5
		 M338.3,110.5c-12.9,0-23.3,10.4-23.3,23.3c0,12.9,10.4,23.3,23.3,23.3c12.9,0,23.3-10.4,23.3-23.3
		C361.6,120.9,351.1,110.5,338.3,110.5L338.3,110.5z"/>
</g>
<g>
	<path fill="#A66049" d="M270.7,118.5c8.4,0,15.3,6.9,15.3,15.3s-6.9,15.3-15.3,15.3s-15.3-6.9-15.3-15.3S262.3,118.5,270.7,118.5
		 M270.7,110.5c-12.9,0-23.3,10.4-23.3,23.3c0,12.9,10.4,23.3,23.3,23.3c12.9,0,23.3-10.4,23.3-23.3
		C294,120.9,283.6,110.5,270.7,110.5L270.7,110.5z"/>
</g>
<g>
	<path fill="#A66049" d="M200.7,75.5c8.4,0,15.3,6.9,15.3,15.3s-6.9,15.3-15.3,15.3s-15.3-6.9-15.3-15.3S192.2,75.5,200.7,75.5
		 M200.7,67.5c-12.9,0-23.3,10.4-23.3,23.3c0,12.9,10.4,23.3,23.3,23.3S224,103.7,224,90.8C224,78,213.5,67.5,200.7,67.5L200.7,67.5
		z"/>
</g>
<g>
	<path fill="#A66049" d="M124,116.3c8.4,0,15.3,6.9,15.3,15.3s-6.9,15.3-15.3,15.3s-15.3-6.9-15.3-15.3S115.5,116.3,124,116.3
		 M124,108.3c-12.9,0-23.3,10.4-23.3,23.3c0,12.9,10.4,23.3,23.3,23.3c12.9,0,23.3-10.4,23.3-23.3
		C147.3,118.7,136.9,108.3,124,108.3L124,108.3z"/>
</g>
<g>
	<path fill="#A66049" d="M124,207.2c8.4,0,15.3,6.9,15.3,15.3s-6.9,15.3-15.3,15.3s-15.3-6.9-15.3-15.3S115.5,207.2,124,207.2
		 M124,199.2c-12.9,0-23.3,10.4-23.3,23.3c0,12.9,10.4,23.3,23.3,23.3c12.9,0,23.3-10.4,23.3-23.3
		C147.3,209.6,136.9,199.2,124,199.2L124,199.2z"/>
</g>
<g>
	<path fill="#A66049" d="M191.6,248.7c8.4,0,15.3,6.9,15.3,15.3s-6.9,15.3-15.3,15.3c-8.4,0-15.3-6.9-15.3-15.3
		S183.2,248.7,191.6,248.7 M191.6,240.7c-12.9,0-23.3,10.4-23.3,23.3s10.4,23.3,23.3,23.3c12.9,0,23.3-10.4,23.3-23.3
		S204.5,240.7,191.6,240.7L191.6,240.7z"/>
</g>
<g>
	<path fill="#A66049" d="M254,311.3c8.4,0,15.3,6.9,15.3,15.3s-6.9,15.3-15.3,15.3s-15.3-6.9-15.3-15.3S245.6,311.3,254,311.3
		 M254,303.3c-12.9,0-23.3,10.4-23.3,23.3s10.4,23.3,23.3,23.3c12.9,0,23.3-10.4,23.3-23.3S266.9,303.3,254,303.3L254,303.3z"/>
</g>
<g>
	<path fill="#A66049" d="M194.1,311.3c8.4,0,15.3,6.9,15.3,15.3s-6.9,15.3-15.3,15.3s-15.3-6.9-15.3-15.3S185.7,311.3,194.1,311.3
		 M194.1,303.3c-12.9,0-23.3,10.4-23.3,23.3s10.4,23.3,23.3,23.3c12.9,0,23.3-10.4,23.3-23.3S207,303.3,194.1,303.3L194.1,303.3z"/>
</g>
<g>
	<path fill="#A66049" d="M116.9,352.6c8.4,0,15.3,6.9,15.3,15.3s-6.9,15.3-15.3,15.3s-15.3-6.9-15.3-15.3S108.4,352.6,116.9,352.6
		 M116.9,344.6c-12.9,0-23.3,10.4-23.3,23.3c0,12.9,10.4,23.3,23.3,23.3c12.9,0,23.3-10.4,23.3-23.3
		C140.2,355,129.7,344.6,116.9,344.6L116.9,344.6z"/>
</g>
<g>
	<path fill="#A66049" d="M116.9,437.2c8.4,0,15.3,6.9,15.3,15.3s-6.9,15.3-15.3,15.3s-15.3-6.9-15.3-15.3S108.4,437.2,116.9,437.2
		 M116.9,429.2c-12.9,0-23.3,10.4-23.3,23.3c0,12.9,10.4,23.3,23.3,23.3c12.9,0,23.3-10.4,23.3-23.3
		C140.2,439.6,129.7,429.2,116.9,429.2L116.9,429.2z"/>
</g>
<g>
	<path fill="#A66049" d="M185.9,483.8c8.4,0,15.3,6.9,15.3,15.3s-6.9,15.3-15.3,15.3s-15.3-6.9-15.3-15.3S177.4,483.8,185.9,483.8
		 M185.9,475.8c-12.9,0-23.3,10.4-23.3,23.3c0,12.9,10.4,23.3,23.3,23.3s23.3-10.4,23.3-23.3C209.2,486.2,198.7,475.8,185.9,475.8
		L185.9,475.8z"/>
</g>
<g>
	<path fill="#A66049" d="M133.4,529.3c8.4,0,15.3,6.9,15.3,15.3c0,8.4-6.9,15.3-15.3,15.3s-15.3-6.9-15.3-15.3
		C118.1,536.2,124.9,529.3,133.4,529.3 M133.4,521.3c-12.9,0-23.3,10.4-23.3,23.3s10.4,23.3,23.3,23.3c12.9,0,23.3-10.4,23.3-23.3
		S146.2,521.3,133.4,521.3L133.4,521.3z"/>
</g>
<g>
	<path fill="#A66049" d="M130.7,595.7c10.1,0,18.3,8.2,18.3,18.3s-8.2,18.3-18.3,18.3s-18.3-8.2-18.3-18.3S120.6,595.7,130.7,595.7
		 M130.7,590.7c-12.9,0-23.3,10.4-23.3,23.3c0,12.9,10.4,23.3,23.3,23.3S154,626.8,154,614C154,601.1,143.6,590.7,130.7,590.7
		L130.7,590.7z"/>
</g>
<line fill="none" stroke="#A66049" stroke-width="5" stroke-miterlimit="10" x1="270.7" y1="157.1" x2="270.7" y2="199.2"/>
<line fill="none" stroke="#A66049" stroke-width="5" stroke-miterlimit="10" x1="253.8" y1="235.8" x2="209.2" y2="253.2"/>
<line fill="none" stroke="#A66049" stroke-width="5" stroke-miterlimit="10" x1="170.8" y1="253.5" x2="140.2" y2="231.6"/>
<line fill="none" stroke="#A66049" stroke-width="5" stroke-miterlimit="10" x1="124" y1="204.4" x2="124" y2="149.4"/>
<line fill="none" stroke="#A66049" stroke-width="5" stroke-miterlimit="10" x1="145.1" y1="121.8" x2="185.6" y2="104.2"/>
<line fill="none" stroke="#A66049" stroke-width="5" stroke-miterlimit="10" x1="217.4" y1="99.4" x2="253.8" y2="121.8"/>
<line fill="none" stroke="#A66049" stroke-width="5" stroke-miterlimit="10" x1="208.9" y1="337.8" x2="254" y2="399"/>
<line fill="none" stroke="#A66049" stroke-width="5" stroke-miterlimit="10" x1="253.8" y1="434.1" x2="204.1" y2="484.6"/>
<line fill="none" stroke="#A66049" stroke-width="5" stroke-miterlimit="10" x1="170.8" y1="484.6" x2="129.8" y2="464.4"/>
<line fill="none" stroke="#A66049" stroke-width="5" stroke-miterlimit="10" x1="116.9" y1="429.2" x2="116.9" y2="388"/>
<line fill="none" stroke="#A66049" stroke-width="5" stroke-miterlimit="10" x1="136.6" y1="355.6" x2="177.4" y2="337.8"/>
<line fill="none" stroke="#A66049" stroke-width="3.2" stroke-miterlimit="10" x1="379.3" y1="133.8" x2="358.9" y2="133.8"/>
<line fill="none" stroke="#A66049" stroke-width="3.2" stroke-miterlimit="10" x1="318.9" y1="133.8" x2="285.8" y2="133.8"/>
<line fill="none" stroke="#A66049" stroke-width="3.2" stroke-miterlimit="10" x1="338.3" y1="94.1" x2="338.3" y2="113.8"/>
<line fill="none" stroke="#A66049" stroke-width="3.2" stroke-miterlimit="10" x1="339.8" y1="148.6" x2="339.8" y2="171.1"/>
<line fill="none" stroke="#A66049" stroke-width="3.2" stroke-miterlimit="10" x1="275.8" y1="90.4" x2="275.8" y2="114.5"/>
<line fill="none" stroke="#A66049" stroke-width="3.2" stroke-miterlimit="10" x1="237" y1="76" x2="219.4" y2="85.2"/>
<line fill="none" stroke="#A66049" stroke-width="3.2" stroke-miterlimit="10" x1="151.4" y1="22.7" x2="151.4" y2="39"/>
<line fill="none" stroke="#A66049" stroke-width="3.2" stroke-miterlimit="10" x1="170.5" y1="71.4" x2="182.5" y2="80.3"/>
<line fill="none" stroke="#A66049" stroke-width="3.2" stroke-miterlimit="10" x1="164.9" y1="134.8" x2="141.5" y2="131.6"/>
<line fill="none" stroke="#A66049" stroke-width="3.2" stroke-miterlimit="10" x1="202.5" y1="148.3" x2="213" y2="161.9"/>
<line fill="none" stroke="#A66049" stroke-width="3.2" stroke-miterlimit="10" x1="104" y1="131.6" x2="80.3" y2="131.6"/>
<line fill="none" stroke="#A66049" stroke-width="3.2" stroke-miterlimit="10" x1="104.3" y1="222.6" x2="78.7" y2="222.6"/>
<line fill="none" stroke="#A66049" stroke-width="3.2" stroke-miterlimit="10" x1="144.9" y1="221.9" x2="156.3" y2="221.9"/>
<line fill="none" stroke="#A66049" stroke-width="3.2" stroke-miterlimit="10" x1="174.2" y1="272.4" x2="156.3" y2="283.8"/>
<line fill="none" stroke="#A66049" stroke-width="3.2" stroke-miterlimit="10" x1="155.4" y1="301.4" x2="180.3" y2="317.4"/>
<line fill="none" stroke="#A66049" stroke-width="3.2" stroke-miterlimit="10" x1="25.4" y1="200.7" x2="40.8" y2="214.5"/>
<line fill="none" stroke="#A66049" stroke-width="3.2" stroke-miterlimit="10" x1="207.4" y1="273.7" x2="225.9" y2="286"/>
<line fill="none" stroke="#A66049" stroke-width="3.2" stroke-miterlimit="10" x1="257.3" y1="293.1" x2="257.3" y2="311.2"/>
<line fill="none" stroke="#A66049" stroke-width="3.2" stroke-miterlimit="10" x1="297.4" y1="326.9" x2="269.3" y2="326.9"/>
<line fill="none" stroke="#A66049" stroke-width="3.2" stroke-miterlimit="10" x1="334.3" y1="338.3" x2="345.1" y2="347.3"/>
<line fill="none" stroke="#A66049" stroke-width="3.2" stroke-miterlimit="10" x1="254.9" y1="341.4" x2="254.9" y2="357.4"/>
<line fill="none" stroke="#A66049" stroke-width="3.2" stroke-miterlimit="10" x1="234.2" y1="326.3" x2="212.4" y2="326.3"/>
<line fill="none" stroke="#A66049" stroke-width="3.2" stroke-miterlimit="10" x1="151.7" y1="368.5" x2="133.5" y2="368.5"/>
<line fill="none" stroke="#A66049" stroke-width="3.2" stroke-miterlimit="10" x1="99" y1="369.1" x2="73.1" y2="369.1"/>
<line fill="none" stroke="#A66049" stroke-width="3.2" stroke-miterlimit="10" x1="38.4" y1="384.2" x2="21.4" y2="394.4"/>
<line fill="none" stroke="#A66049" stroke-width="3.2" stroke-miterlimit="10" x1="98.1" y1="454.7" x2="69.8" y2="454.7"/>
<line fill="none" stroke="#A66049" stroke-width="3.2" stroke-miterlimit="10" x1="134.8" y1="454.4" x2="157.9" y2="454.4"/>
<line fill="none" stroke="#A66049" stroke-width="3.2" stroke-miterlimit="10" x1="169.9" y1="510.5" x2="148.6" y2="531.4"/>
<line fill="none" stroke="#A66049" stroke-width="3.2" stroke-miterlimit="10" x1="133.8" y1="560.7" x2="133.8" y2="592.1"/>
<line fill="none" stroke="#A66049" stroke-width="3.2" stroke-miterlimit="10" x1="145.2" y1="629" x2="160.6" y2="645.4"/>
<line fill="none" stroke="#A66049" stroke-width="3.2" stroke-miterlimit="10" x1="113.5" y1="546.8" x2="96" y2="546.8"/>
<line fill="none" stroke="#A66049" stroke-width="3.2" stroke-miterlimit="10" x1="167.9" y1="546.8" x2="150.4" y2="546.8"/>
<line fill="none" stroke="#A66049" stroke-width="3.2" stroke-miterlimit="10" x1="205.3" y1="507.1" x2="220.1" y2="519.1"/>
<line fill="none" stroke="#A66049" stroke-width="3.2" stroke-miterlimit="10" x1="189.6" y1="436" x2="201.3" y2="425.8"/>
<line fill="none" stroke="#A66049" stroke-width="5" stroke-miterlimit="10" x1="417.3" y1="144.7" x2="426.8" y2="152.8"/>
</svg>
